<?xml version="1.0" encoding="utf-8"?>
<!-- Generator: Adobe Illustrator 18.0.0, SVG Export Plug-In . SVG Version: 6.00 Build 0)  -->
<!DOCTYPE svg PUBLIC "-//W3C//DTD SVG 1.1//EN" "http://www.w3.org/Graphics/SVG/1.1/DTD/svg11.dtd">
<svg version="1.1" id="Layer_1" xmlns="http://www.w3.org/2000/svg" xmlns:xlink="http://www.w3.org/1999/xlink" x="0px" y="0px"
	 width="841.9px" height="595.3px" viewBox="0 0 841.9 595.3" enable-background="new 0 0 841.9 595.3" xml:space="preserve">
<g>
	<rect x="0" y="0" fill="#BFDBFE00" width="841.9" height="595.3"/>
	<g>
		<g>
			<rect x="391.4" fill="#D1D3D4" width="3" height="95.3"/>
		</g>
		<g>
			<rect x="458.1" fill="#D1D3D4" width="3" height="95.3"/>
		</g>
		<g>
			<g>
				<path fill="#7B9AA9" d="M413.3,154.3c0,0-43.5,35.5-38.5,53.5s33.6,42.3,59.6,37.6s34.9-28.1,32.9-40.1s-11.1-28-14.1-28
					s0.1,32-4.4,42s-52.5,1-52.5-11s36.8-43.5,43.5-61c1.4-3.7,0-16,0-16h-26.5V154.3z"/>
				<path fill="#9EB3BE" d="M374.8,207.8c0.7,2.5,1.9,5.2,3.4,7.8c9.1-30,35.1-61.3,35.1-61.3S369.8,189.8,374.8,207.8z"/>
				<path fill="#6B8E9F" d="M448.8,219.3c-4,8.9-42.3,2.8-50.8-7.1c0,0,10.4,18.8,35.3,19.5c24.9,0.6,27.1-29.6,18.9-51.6
					C451.1,187.9,452.5,211.1,448.8,219.3z"/>
			</g>
			<g>
				<polygon fill="#131608" points="454.6,60.4 450.5,53.3 430.4,64.9 430.4,41.7 422.1,41.7 422.1,64.9 402,53.3 397.9,60.4
					418,72 397.9,83.6 402,90.7 422.1,79.1 422.1,102.3 430.4,102.3 430.4,79.1 450.5,90.7 454.6,83.6 434.5,72 				"/>
				<path fill="#2D3023" d="M426.3,38.7c-18.4,0-33.3,14.9-33.3,33.3s14.9,33.3,33.3,33.3s33.3-14.9,33.3-33.3
					S444.7,38.7,426.3,38.7z M426.3,96.3c-13.4,0-24.3-10.9-24.3-24.3c0-13.4,10.9-24.3,24.3-24.3c13.4,0,24.3,10.9,24.3,24.3
					C450.6,85.4,439.7,96.3,426.3,96.3z"/>
				<circle fill="#2D3023" cx="426.3" cy="72" r="10.9"/>
			</g>
			<g>
				<rect x="387.6" y="72" fill="#FFDE17" width="77.3" height="66.7"/>
				<g>
					<polygon fill="#2D3023" points="416.4,138.7 437.2,138.7 387.6,89.1 387.6,109.9 					"/>
					<polygon fill="#2D3023" points="411,72 390.2,72 456.8,138.7 464.9,138.7 464.9,126 					"/>
					<polygon fill="#2D3023" points="451.4,72 430.6,72 464.9,106.3 464.9,85.5 					"/>
				</g>
				<rect x="387.6" y="131.3" fill="#F7C21F" width="77.3" height="7.3"/>
				<g>
					<polygon fill="#131608" points="409,131.3 416.4,138.7 437.2,138.7 429.8,131.3 					"/>
					<polygon fill="#131608" points="456.8,138.7 464.9,138.7 464.9,131.3 449.5,131.3 					"/>
				</g>
			</g>
		</g>
		<g>
			<path fill="#D1D3D4" d="M448.5,219.8c-67.7-0.6-246,83.6-253.6,87.2l1.3,2.7c1.8-0.9,175.2-82.7,246.5-86.7
				C445.4,222.3,447.5,221.3,448.5,219.8z"/>
			<path fill="#D1D3D4" d="M464.7,221.6c-0.4,0.9-0.8,1.9-1.3,2.8c59.4,11.2,180,75.8,181.3,76.5l1.4-2.6
				C640.8,295.4,524.5,233.1,464.7,221.6z"/>
		</g>
		<g>
			<g>
				<g>
					<polygon fill="#BF7429" points="647.9,384.5 694.5,374.7 691.7,324.3 607.9,324.3 691.4,318.2 689.9,292.6 144.9,307.7
						144.9,354.7 165.9,359.1 144.9,363.7 144.9,425.7 696.9,419.7 695,384.5 					"/>
					<g>
						<polygon fill="#A86722" points="144.9,325.1 692,330.1 692,329.1 144.9,324.1 						"/>
						<polygon fill="#A86722" points="692.8,344.6 692.8,343.6 159,357.7 163.2,358.6 						"/>
						<polygon fill="#A86722" points="685.8,376.6 691,375.5 144.9,384.8 144.9,385.8 						"/>
						<polygon fill="#A86722" points="696.4,409.1 144.9,403.4 144.9,404.4 696.4,410.1 						"/>
						<polygon fill="#A86722" points="235.1,305.2 690.6,305.2 690.6,304.2 271.1,304.2 						"/>
					</g>
				</g>
				<g>
					<polygon fill="#BF7429" points="607.9,465.7 696.9,458.7 696.9,421.7 144.9,431.7 144.9,458.5 212.9,463.7 144.9,468.9
						144.9,506.7 175.9,510.6 144.9,514.6 144.9,539.7 696.9,543.7 696.9,468.7 					"/>
					<g>
						<polygon fill="#A86722" points="144.9,446.4 696.9,454 696.9,453 144.9,445.4 						"/>
						<rect x="144.9" y="474.2" fill="#A86722" width="552" height="1"/>
						<polygon fill="#A86722" points="696.9,508.9 144.9,500.4 144.9,501.4 696.9,509.9 						"/>
						<rect x="144.9" y="533.2" fill="#A86722" width="552" height="1"/>
					</g>
				</g>
				<g>
					<rect x="180.9" y="299.7" fill="#7B9AA9" width="35" height="250"/>
					<rect x="207.9" y="299.7" fill="#6B8E9F" width="8" height="250"/>
				</g>
				<g>
					<rect x="625.9" y="287.7" fill="#7B9AA9" width="35" height="262"/>
					<rect x="652.9" y="287.7" fill="#6B8E9F" width="8" height="262"/>
				</g>
				<g>
					<circle fill="#C0CFD7" cx="198.4" cy="365.4" r="9.5"/>
					<path fill="#9EB3BE" d="M204.2,357.8c1.2,1.6,1.9,3.6,1.9,5.7c0,5.2-4.3,9.5-9.5,9.5c-2.1,0-4.1-0.7-5.7-1.9
						c1.7,2.3,4.5,3.8,7.6,3.8c5.2,0,9.5-4.3,9.5-9.5C207.9,362.3,206.5,359.5,204.2,357.8z"/>
					<circle fill="#FFFFFF" cx="195.9" cy="362.8" r="1.4"/>
				</g>
				<g>
					<circle fill="#C0CFD7" cx="643.4" cy="365.4" r="9.5"/>
					<path fill="#9EB3BE" d="M649.2,357.8c1.2,1.6,1.9,3.6,1.9,5.7c0,5.2-4.3,9.5-9.5,9.5c-2.1,0-4.1-0.7-5.7-1.9
						c1.7,2.3,4.5,3.8,7.6,3.8c5.2,0,9.5-4.3,9.5-9.5C652.9,362.3,651.5,359.5,649.2,357.8z"/>
					<circle fill="#FFFFFF" cx="640.9" cy="362.8" r="1.4"/>
				</g>
				<g>
					<circle fill="#C0CFD7" cx="198.4" cy="482.7" r="9.5"/>
					<path fill="#9EB3BE" d="M204.2,475.1c1.2,1.6,1.9,3.6,1.9,5.7c0,5.2-4.3,9.5-9.5,9.5c-2.1,0-4.1-0.7-5.7-1.9
						c1.7,2.3,4.5,3.8,7.6,3.8c5.2,0,9.5-4.3,9.5-9.5C207.9,479.6,206.5,476.9,204.2,475.1z"/>
					<circle fill="#FFFFFF" cx="195.9" cy="480.1" r="1.4"/>
				</g>
				<g>
					<circle fill="#C0CFD7" cx="643.4" cy="482.7" r="9.5"/>
					<path fill="#9EB3BE" d="M649.2,475.1c1.2,1.6,1.9,3.6,1.9,5.7c0,5.2-4.3,9.5-9.5,9.5c-2.1,0-4.1-0.7-5.7-1.9
						c1.7,2.3,4.5,3.8,7.6,3.8c5.2,0,9.5-4.3,9.5-9.5C652.9,479.6,651.5,476.9,649.2,475.1z"/>
					<circle fill="#FFFFFF" cx="640.9" cy="480.1" r="1.4"/>
				</g>
			</g>
			<g>
				<path fill="#FFFFFF" d="M250.8,472.7l6.3-2.7l2.5,7.6l4.2-6.4l3.5,6.1l2.8-8.3l5.3,3.8l-5.7,17l-5.8-5.9l-5.9,7.5L250.8,472.7z"
					/>
				<path fill="#FFFFFF" d="M275.4,471.7l12.8-0.9l-0.7,5.9l-5.8,0.3l0,1.1l4.2-0.3l-0.5,4l-3.9,0.3l0,1.3l6.6-0.6l-0.1,6.4
					l-12.4,0.7L275.4,471.7z"/>
				<path fill="#FFFFFF" d="M290,472.6h2.8v1.6c0,1-0.1,1.8-0.4,2.6c-0.2,0.7-0.7,1.5-1.2,2.2l-1.1-0.9c0.3-0.4,0.5-0.8,0.6-1.1
					c0.1-0.3,0.3-0.7,0.4-1.2H290V472.6z"/>
				<path fill="#FFFFFF" d="M310.7,486.3l-3.6,4l-5.6-4.1l-0.1,4l-5.6-0.6l-0.4-18.1c2.9-0.3,5.8-0.6,8.5-0.9c1.4-0.2,2.7,0,3.6,0.3
					c1,0.4,1.7,0.9,2.2,1.6c0.5,0.7,0.8,1.5,0.9,2.5c0.1,0.9-0.1,1.9-0.4,2.9c-0.3,1-0.9,1.9-1.6,2.9c-0.7,0.9-1.6,1.7-2.7,2.4
					L310.7,486.3z M301.2,476.7l-0.2,3.7c0.6-0.1,1-0.3,1.4-0.5c0.4-0.2,0.8-0.5,1-0.7c0.3-0.3,0.5-0.5,0.6-0.8
					c0.1-0.2,0.2-0.4,0.3-0.6c0,0,0-0.1,0-0.3c0-0.2,0-0.3-0.1-0.6c-0.1-0.2-0.2-0.4-0.4-0.5c-0.2-0.1-0.5-0.2-1-0.2
					C302.5,476.3,301.9,476.4,301.2,476.7z"/>
				<path fill="#FFFFFF" d="M311,471.7l12.8-0.9l-0.7,5.9l-5.8,0.3l0,1.1l4.2-0.3l-0.5,4l-3.9,0.3l0,1.3l6.6-0.6l-0.1,6.4l-12.4,0.7
					L311,471.7z"/>
				<path fill="#FFFFFF" d="M345.1,471.3c0.1,2.4,0.2,4.3,0.2,5.7s0.1,2.5,0.1,3.3c0,0.8,0,1.3,0,1.5v0.4c0,0.9-0.1,1.8-0.2,2.7
					c-0.2,0.9-0.4,1.6-0.8,2.3c-0.4,0.7-1,1.3-1.7,1.8c-0.7,0.5-1.6,0.9-2.6,1.1c-1.6,0.3-3,0.3-4.1,0.1c-1.2-0.2-2.1-0.7-2.9-1.4
					c-0.7-0.7-1.3-1.5-1.6-2.6c-0.3-1-0.5-2.2-0.5-3.4c0,0,0-0.1,0-0.2c0-0.2,0-0.5,0-1c0-0.5,0-1.2,0-2.1c0-0.9,0-2.1,0.1-3.6
					c0-1.5,0.1-3.3,0.2-5.5l6.6,1.2l-0.6,10.9c-0.1,0.4-0.1,0.8,0,1.1c0.1,0.3,0.1,0.5,0.2,0.7c0.1,0.1,0.1,0.2,0.1,0.2
					c0.2,0.2,0.3,0.3,0.5,0.3c0.2,0,0.4-0.2,0.7-0.6c0,0,0.1-0.1,0.1-0.3c0.1-0.2,0.2-0.5,0.2-0.9c0.1-0.4,0.1-1,0.1-1.6l-0.5-8.9
					L345.1,471.3z"/>
				<path fill="#FFFFFF" d="M346.9,470.8l8.8,7.3l0.2-7.7l6.9,0.5l-1.1,17.6l-8.9-4.4l0.3,5.5l-6.6,0.4L346.9,470.8z"/>
				<path fill="#FFFFFF" d="M364.3,471.5c2.8-0.5,5.5-1,8.2-1.3c1.3-0.2,2.4-0.2,3.4,0.2c1,0.3,1.9,0.8,2.5,1.4
					c0.7,0.7,1.2,1.5,1.6,2.4c0.4,1,0.6,2,0.6,3.1c0,1.1-0.1,2.2-0.4,3.4c-0.3,1.2-0.7,2.3-1.4,3.4c-0.6,1.1-1.5,2.1-2.5,3
					c-1,0.9-2.2,1.7-3.5,2.3c-0.5,0.2-1.1,0.3-1.8,0.4c-0.6,0.1-1.5,0.1-2.6,0.1c-1.1,0-2.4-0.1-4-0.3L364.3,471.5z M370.3,484.3
					c0.9-0.2,1.6-0.5,2.1-0.9c0.5-0.4,1-0.8,1.2-1.3c0.3-0.4,0.5-0.9,0.6-1.3c0.1-0.4,0.2-0.8,0.2-1c0-0.3,0-0.4,0-0.4
					c0,0,0-0.2-0.1-0.5c0-0.3-0.1-0.6-0.3-1c-0.2-0.4-0.4-0.7-0.6-0.9c-0.3-0.2-0.7-0.3-1.1-0.3c-0.5,0-1.1,0.3-1.8,0.9L370.3,484.3
					z"/>
				<path fill="#FFFFFF" d="M380.8,471.7l12.8-0.9l-0.7,5.9l-5.8,0.3l0,1.1l4.2-0.3l-0.5,4l-3.9,0.3l0,1.3l6.6-0.6l-0.1,6.4
					l-12.4,0.7L380.8,471.7z"/>
				<path fill="#FFFFFF" d="M409.7,486.3l-3.6,4l-5.6-4.1l-0.1,4l-5.6-0.6l-0.4-18.1c2.9-0.3,5.8-0.6,8.5-0.9c1.4-0.2,2.7,0,3.6,0.3
					c1,0.4,1.7,0.9,2.2,1.6c0.5,0.7,0.8,1.5,0.9,2.5c0.1,0.9-0.1,1.9-0.4,2.9c-0.3,1-0.9,1.9-1.6,2.9c-0.7,0.9-1.6,1.7-2.7,2.4
					L409.7,486.3z M400.2,476.7l-0.2,3.7c0.6-0.1,1-0.3,1.4-0.5c0.4-0.2,0.8-0.5,1-0.7c0.3-0.3,0.5-0.5,0.6-0.8
					c0.1-0.2,0.2-0.4,0.3-0.6c0,0,0-0.1,0-0.3c0-0.2,0-0.3-0.1-0.6c-0.1-0.2-0.2-0.4-0.4-0.5c-0.2-0.1-0.5-0.2-1-0.2
					C401.5,476.3,400.9,476.4,400.2,476.7z"/>
				<path fill="#FFFFFF" d="M432.8,474l-4,5c-0.8-0.9-1.6-1.4-2.2-1.7c-0.6-0.2-1.2-0.3-1.6-0.2c-0.5,0.1-0.8,0.4-1.1,0.8
					c-0.3,0.4-0.6,0.8-0.7,1.2c-0.2,0.4-0.4,1-0.5,1.7c0,0,0,0.2,0.1,0.6c0.1,0.4,0.2,0.8,0.5,1.2c0.3,0.5,0.6,0.8,1.1,1
					c0.5,0.2,1.1,0.2,1.9-0.1c0.8-0.3,1.8-1,3-2.1l4.5,4.8c-0.2,0.4-0.6,0.9-1.2,1.4c-0.6,0.5-1.2,0.9-2,1.3c-0.8,0.4-1.7,0.7-2.6,1
					c-0.9,0.3-1.9,0.4-2.9,0.4c-1,0-1.9-0.1-2.9-0.3c-0.9-0.2-1.8-0.7-2.6-1.3c-1.2-0.9-2-1.9-2.6-3c-0.6-1.1-0.9-2.2-1-3.3
					c-0.1-1.1,0-2.3,0.3-3.4c0.3-1.1,0.7-2.2,1.2-3.2c0.5-1,1.1-1.9,1.8-2.7c0.7-0.8,1.4-1.4,2.1-1.9c0.6-0.3,1.2-0.6,1.7-0.8
					c0.5-0.2,1.2-0.3,1.9-0.3s1.5,0,2.4,0.2c0.9,0.2,1.8,0.6,2.7,1.2C430.9,472.1,431.8,472.9,432.8,474z"/>
				<path fill="#FFFFFF" d="M448.2,487.7c-0.6,0.6-1.2,1-2,1.5c-0.8,0.4-1.6,0.7-2.6,0.9c-0.9,0.2-1.8,0.3-2.8,0.3
					c-1,0-1.9-0.2-2.8-0.5c-0.9-0.3-1.7-0.8-2.4-1.4c-0.7-0.6-1.3-1.5-1.8-2.5c-0.5-1.2-0.8-2.3-0.9-3.4c-0.1-1.1,0-2.2,0.2-3.3
					c0.2-1.1,0.6-2.1,1.2-3s1.2-1.8,2-2.6c0.8-0.8,1.7-1.4,2.6-2s2-1,3.1-1.3c1-0.3,2-0.3,2.9-0.2c0.9,0.1,1.7,0.3,2.5,0.7
					c0.7,0.3,1.4,0.8,1.9,1.2c0.5,0.5,0.9,1,1.2,1.5c0.5,0.9,0.8,2,1.1,3.1c0.2,1.2,0.3,2.4,0.2,3.6c-0.1,1.2-0.5,2.5-1.1,3.8
					C450.2,485.3,449.4,486.6,448.2,487.7z M445.2,477.9c-0.2-0.5-0.6-0.8-1-1.1c-0.4-0.2-0.9-0.3-1.4-0.3c-0.5,0-1,0.2-1.5,0.4
					c-0.5,0.3-1,0.6-1.4,1.1c-0.4,0.5-0.8,1-1,1.7c-0.3,0.6-0.4,1.4-0.4,2.2c0,0.7,0.1,1.3,0.3,1.8c0.2,0.5,0.5,0.8,0.9,1
					c0.3,0.2,0.7,0.3,1.2,0.4c0.4,0,0.9,0,1.3-0.2c0.4-0.2,0.9-0.4,1.2-0.7c0.4-0.3,0.7-0.7,1-1.1c0.4-0.6,0.7-1.2,0.8-1.7
					c0.2-0.5,0.3-1,0.3-1.4c0-0.4,0-0.8-0.1-1.2C445.4,478.5,445.3,478.1,445.2,477.9z"/>
				<path fill="#FFFFFF" d="M452.3,470.8l8.8,7.3l0.2-7.7l6.9,0.5l-1.1,17.6l-8.9-4.4l0.3,5.5L452,490L452.3,470.8z"/>
				<path fill="#FFFFFF" d="M478.5,478c0.5,0.2,1,0.5,1.5,0.7c0.5,0.3,1,0.6,1.4,1c0.4,0.4,0.7,0.9,1,1.4c0.3,0.6,0.4,1.2,0.5,2
					c0,1.1-0.1,2.1-0.5,2.9c-0.4,0.8-1,1.5-1.7,2.1c-0.7,0.6-1.6,1-2.6,1.3c-1,0.3-2.1,0.5-3.3,0.5c-0.5,0-1.1,0-1.7-0.1
					c-0.6-0.1-1.1-0.2-1.7-0.3c-0.6-0.1-1.1-0.3-1.6-0.5c-0.5-0.2-1-0.4-1.5-0.6l1.8-5c0.2,0.1,0.5,0.2,0.8,0.4
					c0.3,0.1,0.7,0.3,1,0.4c0.4,0.1,0.8,0.2,1.2,0.3c0.4,0.1,0.8,0.1,1.2,0.1c0.6,0,1.1-0.1,1.4-0.3c0.4-0.2,0.6-0.5,0.6-0.9
					c0-0.3-0.2-0.5-0.4-0.6c-0.3-0.1-0.6-0.3-0.9-0.4c-0.2-0.1-0.5-0.1-0.9-0.3c-0.4-0.1-0.8-0.3-1.2-0.4c-0.4-0.2-0.9-0.4-1.3-0.7
					c-0.4-0.3-0.8-0.6-1.2-0.9c-0.4-0.4-0.7-0.8-0.9-1.3c-0.2-0.5-0.4-1-0.4-1.7c0-1.1,0.2-2,0.6-2.9c0.4-0.8,0.9-1.6,1.6-2.2
					c0.7-0.6,1.5-1,2.4-1.4c0.9-0.3,1.9-0.5,3-0.5c1,0,1.9,0,2.9,0.2c1,0.1,1.9,0.4,2.7,0.7l-1.4,5.3c-0.6-0.3-1.2-0.5-1.7-0.7
					c-0.5-0.2-1.1-0.3-1.8-0.4c-0.2,0-0.5,0-0.8,0c-0.3,0-0.6,0-1,0.1s-0.6,0.2-0.8,0.3c-0.2,0.2-0.4,0.4-0.4,0.6
					c0,0.1,0.1,0.2,0.2,0.3c0.1,0.1,0.3,0.1,0.4,0.2c0.2,0,0.3,0.1,0.5,0.1c0.2,0,0.3,0,0.4,0.1c0.4,0.1,0.9,0.2,1.4,0.3
					C477.7,477.7,478.1,477.8,478.5,478z"/>
				<path fill="#FFFFFF" d="M494.4,475.8l-2.8,0.3v13l-6.6,0.8l0.3-13.2l-3.1,0.3l0.2-5.7l12.5-1.1L494.4,475.8z"/>
				<path fill="#FFFFFF" d="M510.5,486.3l-3.6,4l-5.6-4.1l-0.1,4l-5.6-0.6l-0.4-18.1c2.9-0.3,5.8-0.6,8.5-0.9c1.4-0.2,2.7,0,3.6,0.3
					c1,0.4,1.7,0.9,2.2,1.6c0.5,0.7,0.8,1.5,0.9,2.5c0.1,0.9-0.1,1.9-0.4,2.9c-0.3,1-0.9,1.9-1.6,2.9c-0.7,0.9-1.6,1.7-2.7,2.4
					L510.5,486.3z M500.9,476.7l-0.2,3.7c0.6-0.1,1-0.3,1.4-0.5c0.4-0.2,0.8-0.5,1-0.7c0.3-0.3,0.5-0.5,0.6-0.8
					c0.1-0.2,0.2-0.4,0.3-0.6c0,0,0-0.1,0-0.3c0-0.2,0-0.3-0.1-0.6c-0.1-0.2-0.2-0.4-0.4-0.5c-0.2-0.1-0.5-0.2-1-0.2
					C502.3,476.3,501.7,476.4,500.9,476.7z"/>
				<path fill="#FFFFFF" d="M524.3,471.3c0.1,2.4,0.2,4.3,0.2,5.7c0,1.4,0.1,2.5,0.1,3.3c0,0.8,0,1.3,0,1.5v0.4
					c0,0.9-0.1,1.8-0.2,2.7c-0.2,0.9-0.4,1.6-0.8,2.3c-0.4,0.7-1,1.3-1.7,1.8s-1.6,0.9-2.6,1.1c-1.6,0.3-3,0.3-4.1,0.1
					c-1.2-0.2-2.1-0.7-2.9-1.4c-0.7-0.7-1.3-1.5-1.6-2.6c-0.3-1-0.5-2.2-0.5-3.4c0,0,0-0.1,0-0.2c0-0.2,0-0.5,0-1c0-0.5,0-1.2,0-2.1
					c0-0.9,0-2.1,0.1-3.6c0-1.5,0.1-3.3,0.2-5.5l6.6,1.2l-0.6,10.9c-0.1,0.4-0.1,0.8,0,1.1c0.1,0.3,0.1,0.5,0.2,0.7
					c0.1,0.1,0.1,0.2,0.1,0.2c0.2,0.2,0.3,0.3,0.5,0.3c0.2,0,0.4-0.2,0.7-0.6c0,0,0.1-0.1,0.1-0.3c0.1-0.2,0.2-0.5,0.2-0.9
					c0.1-0.4,0.1-1,0.1-1.6l-0.5-8.9L524.3,471.3z"/>
				<path fill="#FFFFFF" d="M541.5,474l-4,5c-0.8-0.9-1.6-1.4-2.2-1.7c-0.6-0.2-1.2-0.3-1.6-0.2c-0.5,0.1-0.8,0.4-1.1,0.8
					c-0.3,0.4-0.6,0.8-0.7,1.2c-0.2,0.4-0.4,1-0.5,1.7c0,0,0,0.2,0.1,0.6c0.1,0.4,0.2,0.8,0.5,1.2c0.3,0.5,0.6,0.8,1.1,1
					c0.5,0.2,1.1,0.2,1.9-0.1c0.8-0.3,1.8-1,3-2.1l4.5,4.8c-0.2,0.4-0.6,0.9-1.2,1.4c-0.6,0.5-1.2,0.9-2,1.3c-0.8,0.4-1.7,0.7-2.6,1
					c-0.9,0.3-1.9,0.4-2.9,0.4c-1,0-1.9-0.1-2.9-0.3c-0.9-0.2-1.8-0.7-2.6-1.3c-1.2-0.9-2-1.9-2.6-3c-0.6-1.1-0.9-2.2-1-3.3
					c-0.1-1.1,0-2.3,0.3-3.4c0.3-1.1,0.7-2.2,1.2-3.2c0.5-1,1.1-1.9,1.8-2.7c0.7-0.8,1.4-1.4,2.1-1.9c0.6-0.3,1.2-0.6,1.7-0.8
					c0.5-0.2,1.2-0.3,1.9-0.3c0.7-0.1,1.5,0,2.4,0.2c0.9,0.2,1.8,0.6,2.7,1.2C539.6,472.1,540.6,472.9,541.5,474z"/>
				<path fill="#FFFFFF" d="M554.2,475.8l-2.8,0.3v13l-6.6,0.8l0.3-13.2l-3.1,0.3l0.2-5.7l12.5-1.1L554.2,475.8z"/>
				<path fill="#FFFFFF" d="M562.1,470.6l-0.9,18.7l-6.1,0.7l0.2-18.6L562.1,470.6z"/>
				<path fill="#FFFFFF" d="M577.6,487.7c-0.6,0.6-1.2,1-2,1.5s-1.6,0.7-2.6,0.9c-0.9,0.2-1.8,0.3-2.8,0.3c-1,0-1.9-0.2-2.8-0.5
					c-0.9-0.3-1.7-0.8-2.4-1.4c-0.7-0.6-1.3-1.5-1.8-2.5c-0.5-1.2-0.8-2.3-0.9-3.4c-0.1-1.1,0-2.2,0.2-3.3c0.2-1.1,0.6-2.1,1.2-3
					s1.2-1.8,2-2.6c0.8-0.8,1.7-1.4,2.6-2s2-1,3.1-1.3c1-0.3,2-0.3,2.9-0.2c0.9,0.1,1.7,0.3,2.5,0.7c0.7,0.3,1.4,0.8,1.9,1.2
					c0.5,0.5,0.9,1,1.2,1.5c0.5,0.9,0.8,2,1.1,3.1c0.2,1.2,0.3,2.4,0.2,3.6c-0.1,1.2-0.5,2.5-1.1,3.8
					C579.6,485.3,578.7,486.6,577.6,487.7z M574.5,477.9c-0.2-0.5-0.6-0.8-1-1.1c-0.4-0.2-0.9-0.3-1.4-0.3c-0.5,0-1,0.2-1.5,0.4
					c-0.5,0.3-1,0.6-1.4,1.1c-0.4,0.5-0.8,1-1,1.7c-0.3,0.6-0.4,1.4-0.4,2.2c0,0.7,0.1,1.3,0.3,1.8c0.2,0.5,0.5,0.8,0.9,1
					c0.3,0.2,0.7,0.3,1.2,0.4c0.4,0,0.9,0,1.3-0.2c0.4-0.2,0.9-0.4,1.2-0.7c0.4-0.3,0.7-0.7,1-1.1c0.4-0.6,0.7-1.2,0.8-1.7
					c0.2-0.5,0.3-1,0.3-1.4c0-0.4,0-0.8-0.1-1.2C574.8,478.5,574.7,478.1,574.5,477.9z"/>
				<path fill="#FFFFFF" d="M581.7,470.8l8.8,7.3l0.2-7.7l6.9,0.5l-1.1,17.6l-8.9-4.4l0.3,5.5l-6.6,0.4L581.7,470.8z"/>
			</g>
			<g>
				<g>
					<g>
						<path fill="#FFFFFF" d="M291.4,354.3c1.7,0.8,3.5,1.7,5.3,2.7c1.8,1,3.4,2.2,4.9,3.7c1.5,1.4,2.7,3.2,3.7,5.2
							c1,2,1.5,4.4,1.6,7.2c0.2,3.9-0.5,7.4-1.9,10.5c-1.4,3-3.5,5.6-6.1,7.7c-2.6,2.1-5.8,3.7-9.5,4.8c-3.7,1.1-7.6,1.8-11.8,2
							c-1.9,0.1-3.9,0-6-0.3c-2.1-0.3-4.1-0.6-6.1-1.1c-2-0.5-3.9-1.1-5.8-1.8c-1.9-0.7-3.7-1.4-5.3-2.2l6.3-17.8
							c0.8,0.3,1.8,0.8,3,1.3c1.2,0.5,2.4,1,3.7,1.5c1.3,0.4,2.7,0.8,4.2,1.2c1.4,0.3,2.9,0.5,4.2,0.4c2.1-0.1,3.8-0.5,5.2-1.1
							c1.4-0.6,2.1-1.6,2-3.1c-0.1-0.9-0.5-1.7-1.5-2.2c-0.9-0.5-2-1-3.3-1.5c-0.8-0.2-1.9-0.5-3.3-0.9c-1.4-0.4-2.8-0.9-4.4-1.6
							c-1.6-0.7-3.1-1.5-4.7-2.4c-1.6-0.9-3-2.1-4.3-3.4c-1.3-1.3-2.4-2.9-3.3-4.6c-0.9-1.8-1.3-3.8-1.4-6c-0.1-3.9,0.6-7.3,2-10.4
							c1.4-3,3.4-5.6,5.9-7.8c2.5-2.1,5.4-3.8,8.8-4.9c3.3-1.1,6.9-1.8,10.7-2c3.5-0.2,7,0,10.4,0.5c3.4,0.5,6.7,1.4,9.7,2.6
							l-4.9,19.3c-2.2-0.9-4.3-1.7-6.1-2.4c-1.8-0.6-4-1.1-6.4-1.5c-0.7-0.1-1.7-0.2-2.9-0.2c-1.2,0-2.3,0.1-3.5,0.4s-2.1,0.7-3,1.2
							c-0.8,0.6-1.3,1.3-1.3,2.3c0,0.4,0.2,0.8,0.6,1c0.4,0.3,0.9,0.4,1.5,0.6c0.6,0.1,1.2,0.3,1.8,0.3c0.6,0.1,1.1,0.2,1.5,0.2
							c1.6,0.3,3.3,0.7,5.2,1.2C288.5,353.2,290,353.7,291.4,354.3z"/>
						<path fill="#FFFFFF" d="M358.8,389.3c-2,2-4.4,3.8-7.3,5.3c-2.9,1.5-5.9,2.6-9.2,3.4c-3.3,0.8-6.7,1.1-10.1,1.1
							c-3.5-0.1-6.8-0.7-10-1.8c-3.2-1.1-6.1-2.9-8.8-5.2c-2.7-2.3-4.8-5.4-6.5-9.1c-1.9-4.2-3-8.3-3.4-12.4
							c-0.4-4.1-0.1-8.1,0.8-11.9c0.9-3.8,2.3-7.4,4.3-10.8s4.4-6.5,7.2-9.2c2.8-2.8,6-5.1,9.5-7.1c3.5-2,7.3-3.5,11.3-4.6
							c3.8-0.9,7.3-1.2,10.6-0.9c3.3,0.4,6.3,1.2,9,2.4c2.7,1.2,4.9,2.7,6.8,4.5c1.9,1.7,3.3,3.5,4.2,5.3c1.7,3.3,3,7.1,3.9,11.3
							c0.9,4.2,1.1,8.5,0.6,13c-0.5,4.5-1.7,9-3.8,13.6C365.9,380.7,362.8,385.1,358.8,389.3z M347.7,353.8c-0.8-1.8-2-3.1-3.5-3.8
							c-1.5-0.8-3.2-1.1-5-1c-1.8,0.1-3.6,0.6-5.4,1.5c-1.8,0.9-3.5,2.2-5,3.8c-1.5,1.6-2.7,3.6-3.7,6c-1,2.3-1.5,4.9-1.5,7.7
							c-0.1,2.7,0.3,4.8,1.1,6.5c0.8,1.7,1.8,2.9,3.1,3.7c1.2,0.8,2.7,1.3,4.3,1.3c1.6,0.1,3.2-0.2,4.8-0.7c1.6-0.6,3.1-1.4,4.5-2.5
							c1.4-1.1,2.6-2.3,3.5-3.8c1.4-2.2,2.4-4.2,3-6c0.6-1.9,1-3.6,1.2-5.1c0.1-1.6,0.1-3-0.2-4.3
							C348.6,355.9,348.2,354.8,347.7,353.8z"/>
						<path fill="#FFFFFF" d="M426.8,384.2l-12.9,14.6l-20.3-14.9l-0.3,14.3l-20.2-2.1l-1.3-65.1c10.6-1.2,20.7-2.3,30.5-3.3
							c5.2-0.6,9.6-0.2,13,1.2c3.5,1.3,6.1,3.3,7.9,5.8c1.8,2.5,2.8,5.5,3.1,8.8c0.3,3.4-0.2,6.8-1.5,10.3c-1.2,3.5-3.2,7-5.8,10.3
							c-2.6,3.3-5.9,6.2-9.8,8.7L426.8,384.2z M392.4,349.6l-0.8,13.3c2-0.4,3.7-1.1,5.2-1.9c1.5-0.8,2.7-1.7,3.7-2.7
							c1-0.9,1.8-1.8,2.3-2.7c0.5-0.9,0.8-1.5,1-2c0-0.1,0-0.4,0.1-0.9c0.1-0.6,0-1.2-0.2-2c-0.2-0.8-0.7-1.4-1.4-2
							c-0.7-0.5-1.9-0.8-3.5-0.8C397.2,348,395.1,348.5,392.4,349.6z"/>
						<path fill="#FFFFFF" d="M482.7,384.2l-12.9,14.6l-20.3-14.9l-0.3,14.3l-20.2-2.1l-1.3-65.1c10.6-1.2,20.7-2.3,30.5-3.3
							c5.2-0.6,9.6-0.2,13,1.2c3.5,1.3,6.1,3.3,7.9,5.8c1.8,2.5,2.8,5.5,3.1,8.8c0.3,3.4-0.2,6.8-1.5,10.3c-1.2,3.5-3.2,7-5.8,10.3
							s-5.9,6.2-9.8,8.7L482.7,384.2z M448.3,349.6l-0.8,13.3c2-0.4,3.7-1.1,5.2-1.9c1.5-0.8,2.7-1.7,3.7-2.7c1-0.9,1.8-1.8,2.3-2.7
							c0.5-0.9,0.8-1.5,1-2c0-0.1,0-0.4,0.1-0.9c0.1-0.6,0-1.2-0.2-2c-0.2-0.8-0.7-1.4-1.4-2c-0.7-0.5-1.9-0.8-3.5-0.8
							C453,348,450.9,348.5,448.3,349.6z"/>
						<path fill="#FFFFFF" d="M493.8,326.8l14.8,23.2l16-23.2l20.4,14l-25.4,32.8l-0.3,24l-22.4-3v-24.5l-21-29.3L493.8,326.8z"/>
						<path fill="#FFFFFF" d="M574.3,398.7c-1.7-0.6-3.3-1.4-4.6-2.4c-1.4-1-2.5-2-3.3-3.2c-0.9-1.2-1.4-2.4-1.8-3.7
							c-0.3-1.3-0.2-2.5,0.2-3.7c0.4-1.2,1.1-2.2,2.1-3c1-0.8,2.2-1.4,3.6-1.8c1.4-0.4,3-0.5,4.6-0.5c1.7,0.1,3.4,0.4,5.1,1
							c1.7,0.6,3.3,1.4,4.6,2.4c1.4,1,2.5,2,3.3,3.2c0.9,1.2,1.4,2.4,1.7,3.7c0.3,1.3,0.2,2.5-0.2,3.7c-0.4,1.2-1.1,2.2-2.1,3
							c-1,0.8-2.2,1.4-3.6,1.8c-1.4,0.4-3,0.6-4.6,0.5C577.7,399.6,576,399.3,574.3,398.7z M590.3,379.2c-1.4-1-3.1-1.8-5-2.5
							c-1.9-0.6-3.8-1-6-1.2c-2.1-0.2-4-0.1-5.9,0.2c-1.9,0.3-3.6,0.8-5.1,1.5l4.4-57.7l24.7-1L590.3,379.2z"/>
					</g>
				</g>
				<path fill="#FFFFFF" d="M273.4,396.1c0,0-0.2,4.8,0,9.7c0.2,4.8,0.8,5.5,3,4.5c2.2-0.9,0.7-14.2,0.7-14.2H273.4z"/>
				<path fill="#FFFFFF" d="M354.9,388.9c0,0-0.2,4.8,0,9.7c0.2,4.8,0.8,5.5,3,4.5c2.2-0.9,0.7-14.2,0.7-14.2H354.9z"/>
				<path fill="#FFFFFF" d="M397.3,338.9c0,0-0.2,4.8,0,9.7c0.2,4.8,0.8,5.5,3,4.5c2.2-0.9,0.7-14.2,0.7-14.2H397.3z"/>
				<path fill="#FFFFFF" d="M377,388.9c0,0-0.2,4.8,0,9.7c0.2,4.8,0.8,5.5,3,4.5c2.2-0.9,0.7-14.2,0.7-14.2H377z"/>
				<path fill="#FFFFFF" d="M432.3,384.6c0,0-0.2,4.8,0,9.7c0.2,4.8,0.8,5.5,3,4.5c2.2-0.9,0.7-14.2,0.7-14.2H432.3z"/>
				<path fill="#FFFFFF" d="M438.3,394.1c0,0-0.2,4.8,0,9.7c0.2,4.8,0.8,5.5,3,4.5c2.2-0.9,0.7-14.2,0.7-14.2H438.3z"/>
				<path fill="#FFFFFF" d="M493.2,365.2c0,0-0.2,4.8,0,9.7c0.2,4.8,0.8,5.5,3,4.5c2.2-0.9,0.7-14.2,0.7-14.2H493.2z"/>
				<path fill="#FFFFFF" d="M580.2,396.7c0,0-0.2,4.8,0,9.7s0.8,5.5,3,4.5s0.7-14.2,0.7-14.2H580.2z"/>
				<path fill="#FFFFFF" d="M278.2,392.5c0,0-0.1,2.8,0,5.7c0.1,2.8,0.5,3.2,1.8,2.7c1.3-0.6,0.4-8.4,0.4-8.4H278.2z"/>
				<path fill="#FFFFFF" d="M351.5,389.5c0,0-0.1,2.8,0,5.7s0.5,3.2,1.8,2.7c1.3-0.6,0.4-8.4,0.4-8.4H351.5z"/>
				<path fill="#FFFFFF" d="M398.2,384.6c0,0-0.1,2.8,0,5.7c0.1,2.8,0.5,3.2,1.8,2.7c1.3-0.6,0.4-8.4,0.4-8.4H398.2z"/>
				<path fill="#FFFFFF" d="M455.3,342.5c0,0-0.1,2.8,0,5.7c0.1,2.8,0.5,3.2,1.8,2.7c1.3-0.6,0.4-8.4,0.4-8.4H455.3z"/>
				<path fill="#FFFFFF" d="M482.7,346.8c0,0-0.1,2.8,0,5.7s0.5,3.2,1.8,2.7c1.3-0.6,0.4-8.4,0.4-8.4H482.7z"/>
				<path fill="#FFFFFF" d="M521.9,366.9c0,0-0.1,2.8,0,5.7c0.1,2.8,0.5,3.2,1.8,2.7s0.4-8.4,0.4-8.4H521.9z"/>
				<path fill="#FFFFFF" d="M585.4,395.4c0,0-0.1,2.8,0,5.7c0.1,2.8,0.5,3.2,1.8,2.7s0.4-8.4,0.4-8.4H585.4z"/>
				<path fill="#FFFFFF" d="M514.9,394.5c0,0-0.1,2.8,0,5.7c0.1,2.8,0.5,3.2,1.8,2.7s0.4-8.4,0.4-8.4H514.9z"/>
				<path fill="#FFFFFF" d="M401.5,388.9c0,0-0.1,2.8,0,5.7c0.1,2.8,0.5,3.2,1.8,2.7c1.3-0.6,0.4-8.4,0.4-8.4H401.5z"/>
				<path fill="#FFFFFF" d="M330.2,351.1c0,0-0.1,2.8,0,5.7c0.1,2.8,0.5,3.2,1.8,2.7c1.3-0.6,0.4-8.4,0.4-8.4H330.2z"/>
			</g>
		</g>
	</g>
</g>
</svg>
